<svg width="82" height="60" viewBox="0 0 82 60" fill="none" xmlns="http://www.w3.org/2000/svg">
<g clip-path="url(#clip0_2701_1054)">
<path d="M9.58741 21.3645L11.133 28.7819L9.21728 29.1934L8.11687 23.9199L6.07613 24.3568L7.04648 29.0054L5.13078 29.417L4.16043 24.7684L0.449069 25.566L0.00390625 23.422L9.59241 21.3594L9.58741 21.3645Z" fill="white"/>
<path d="M6.373 32.0454L11.3048 29.3477L12.3252 31.2782L7.44339 33.9455C6.03788 34.7126 5.68775 35.8252 6.31298 37.0039C6.93821 38.1825 8.0186 38.5077 9.3841 37.7609L14.3259 35.0581L15.3463 36.9886L10.4745 39.6508C7.86355 41.0784 5.78779 40.2909 4.54233 37.9387C3.29187 35.5864 3.82707 33.4374 6.363 32.0505L6.373 32.0454Z" fill="white"/>
<path d="M9.72266 43.3479L11.7034 43.1955C11.7984 44.3538 12.1085 45.3547 12.8888 46.1726C13.504 46.8178 14.1243 46.955 14.5394 46.5486L14.5594 46.5282C14.9496 46.1421 14.9196 45.7001 14.0742 44.2065C13.0589 42.4131 12.5637 41.0973 13.9592 39.7205L13.9792 39.7001C15.2547 38.4402 17.0954 38.6485 18.4909 40.1066C19.4862 41.1481 20.0164 42.3521 20.1365 43.6426L18.1908 43.9779C18.0157 42.9211 17.6806 42.0371 17.1054 41.4376C16.5301 40.8382 15.9549 40.7873 15.6148 41.1227L15.5948 41.143C15.1346 41.6002 15.2747 42.0524 16.145 43.5968C17.1604 45.4105 17.4305 46.7365 16.205 47.9457L16.185 47.966C14.7895 49.3428 12.9688 49.038 11.4983 47.4986C10.4629 46.4165 9.78768 44.9584 9.72266 43.358V43.3479Z" fill="white"/>
<path d="M22.2819 43.7031L24.0575 44.9478L18.4905 53.1477L16.7148 51.903L22.2819 43.7031Z" fill="white"/>
<path d="M23.1114 50.622L23.1214 50.5966C24.1118 47.9497 26.9778 46.5779 29.8088 47.6702C32.6349 48.7625 33.8653 51.6889 32.87 54.3358L32.86 54.3612C31.8696 57.0081 29.0035 58.3798 26.1725 57.2875C23.3415 56.1952 22.116 53.2689 23.1114 50.622ZM30.7442 53.5737L30.7542 53.5483C31.3544 51.9531 30.6992 50.18 29.0736 49.55C27.448 48.92 25.8374 49.7888 25.2372 51.384L25.2272 51.4094C24.6269 53.0047 25.2822 54.7778 26.9078 55.4077C28.5334 56.0377 30.144 55.169 30.7442 53.5737Z" fill="white"/>
<path d="M35.4187 49.7305L37.4045 49.8067L41.7761 56.1064L41.9961 49.9794L44.1219 50.0556L43.7668 60.0082L41.9311 59.9422L37.4145 53.4392L37.1894 59.7694L35.0586 59.6932L35.4137 49.7406L35.4187 49.7305Z" fill="white"/>
<path d="M45.4336 49.7811L49.31 48.7548C51.5758 48.1554 53.2915 49.1562 53.7967 51.1274V51.1528C54.3769 53.3831 52.9664 54.9936 50.8356 55.5576L49.25 55.9792L49.9903 58.87L47.9045 59.4238L45.4336 49.7862V49.7811ZM50.4204 53.6524C51.4658 53.378 51.911 52.5804 51.7009 51.7574V51.7269C51.4508 50.7769 50.6705 50.4416 49.6251 50.7159L48.0145 51.1427L48.7698 54.0893L50.4254 53.6524H50.4204Z" fill="white"/>
<path d="M55.543 46.1622L57.2686 45.1562L65.8317 51.7303L63.876 52.8684L62.0053 51.3849L58.409 53.4831L58.7241 55.8709L56.8184 56.9835L55.543 46.1571V46.1622ZM60.3847 50.0995L57.6737 47.9556L58.1289 51.4154L60.3897 50.0995H60.3847Z" fill="white"/>
<path d="M61.212 42.6965L63.778 39.821C65.8487 37.5043 68.8448 37.3468 70.8856 39.2266L70.9056 39.2469C72.9463 41.1318 73.1064 44.1953 71.0356 46.512L68.4647 49.3875L61.207 42.6965H61.212ZM69.6001 45.1809C70.7855 43.8549 70.7055 42.1479 69.42 40.9641L69.4 40.9438C68.1146 39.76 66.4139 39.821 65.2285 41.1521L64.1081 42.407L68.4847 46.4408L69.6051 45.186L69.6001 45.1809Z" fill="white"/>
<path d="M67.6417 35.0402L70.8179 28.2578L72.5485 29.0961L70.2927 33.9123L72.0884 34.7811L74.0741 30.544L75.8047 31.3823L73.819 35.6194L75.6747 36.5186L77.9605 31.6414L79.6911 32.4797L76.485 39.323L67.6367 35.0453L67.6417 35.0402Z" fill="white"/>
<path d="M71.0586 27.183L71.4587 25.0289L79.1666 26.5022L80.0669 21.625L81.9926 21.9908L80.6921 29.0221L71.0586 27.183Z" fill="white"/>
<path d="M28.9596 37.0696C28.4444 37.0696 27.9393 36.7953 27.6592 36.3075C27.244 35.581 27.4891 34.6462 28.2044 34.2246L59.2057 15.9553C59.921 15.5336 60.8413 15.7826 61.2565 16.5091C61.6716 17.2356 61.4265 18.1704 60.7113 18.5921L29.7099 36.8664C29.4748 37.0086 29.2147 37.0747 28.9596 37.0747V37.0696Z" fill="#95C11F"/>
<path d="M22.0363 23.8537C21.4011 23.8537 20.8108 23.4371 20.6058 22.7919C20.3557 21.9892 20.7908 21.1306 21.5811 20.8766L57.2892 9.34906C58.0795 9.09504 58.9248 9.53704 59.1749 10.3397C59.425 11.1425 58.9898 12.0011 58.1995 12.2551L22.4915 23.7826C22.3414 23.8334 22.1863 23.8537 22.0363 23.8537Z" fill="#95C11F"/>
<path d="M41.1369 41.5689C41.0469 41.5689 40.9568 41.5587 40.8668 41.5435C40.0515 41.3962 39.5113 40.6036 39.6564 39.7704L46.2988 2.37838C46.4438 1.55026 47.2291 1.00158 48.0444 1.14891C48.8597 1.29624 49.3999 2.08879 49.2549 2.92198L42.6124 40.314C42.4824 41.0507 41.8472 41.5689 41.1369 41.5689Z" fill="#95C11F"/>
<path d="M58.8511 27.7915C58.551 27.7915 58.2509 27.7001 57.9858 27.5121L28.6451 6.42318C27.9698 5.93546 27.8098 4.98542 28.2849 4.29956C28.7651 3.6137 29.7005 3.45113 30.3757 3.93377L59.7164 25.0227C60.3917 25.5104 60.5517 26.4604 60.0766 27.1463C59.7865 27.568 59.3213 27.7915 58.8511 27.7915Z" fill="#95C11F"/>
<path d="M25.9067 33.4157C25.6966 33.4157 25.4815 33.3699 25.2765 33.2734C24.5262 32.9178 24.1961 32.0135 24.5462 31.2514L38.3863 0.885611C38.7364 0.123545 39.6267 -0.206683 40.377 0.143867C41.1273 0.499498 41.4574 1.40382 41.1073 2.16588L27.2672 32.5317C27.0121 33.0854 26.4719 33.4157 25.9067 33.4157Z" fill="#95C11F"/>
<path d="M53.8672 35.1026C53.5871 35.1026 53.302 35.0213 53.0519 34.8537L22.0455 14.3287C21.3503 13.8664 21.1552 12.9265 21.6054 12.2203C22.0555 11.5141 22.9859 11.316 23.6811 11.7733L54.6825 32.2982C55.3777 32.7605 55.5728 33.7004 55.1226 34.4066C54.8325 34.8537 54.3524 35.0976 53.8622 35.0976L53.8672 35.1026Z" fill="#95C11F"/>
</g>
<defs>
<clipPath id="clip0_2701_1054">
<rect width="82" height="60" fill="white"/>
</clipPath>
</defs>
</svg>
